<svg xmlns="http://www.w3.org/2000/svg" width="173.629" height="35" viewBox="0 0 173.629 35">
    <g id="WeMagnus-Logo-horizontal-sans-baseline-BlueX-RVB" transform="translate(-63.9 -63.9)">
        <g id="Groupe_13349" data-name="Groupe 13349" transform="translate(106.25 72.25)">
            <path id="W" d="M223.146,111.372,219,93.1h3.431l2.116,9.379c.057.315.143.658.229,1s.143.658.229,1c.057.343.143.686.2,1,.057.343.143.658.2,1h-.743c.086-.343.172-.686.257-1,.086-.343.172-.658.257-1s.172-.686.257-1c.086-.343.172-.658.257-1l2.631-9.35h2.888l2.631,9.265.257,1.029c.086.343.2.686.286,1.029l.543,2.059h-.743l.429-2.087c.086-.343.172-.686.229-1.029s.143-.686.2-1.029l2.059-9.236h3.431l-4.06,18.243h-3.346l-2.8-9.779c-.114-.4-.229-.772-.343-1.172s-.2-.8-.343-1.2l-.172-.686-.172-.686h.8c-.057.315-.143.6-.2.886s-.143.543-.2.829c-.086.343-.172.715-.286,1.029-.114.343-.2.686-.286,1.029l-2.716,9.779h-3.26Z" transform="translate(-219 -93.1)" fill="#372e9f"/>
            <path id="e" d="M301.991,122.74a7.185,7.185,0,0,1-3.717-.944,6.722,6.722,0,0,1-2.488-2.574,7.635,7.635,0,0,1-.886-3.6,7.408,7.408,0,0,1,.858-3.489,6.785,6.785,0,0,1,6.148-3.632,7.365,7.365,0,0,1,3.746.944,6.746,6.746,0,0,1,2.545,2.6,7.841,7.841,0,0,1,.915,3.775v.372a1.631,1.631,0,0,1-.029.372H298.188a3.9,3.9,0,0,0,.686,1.687,3.27,3.27,0,0,0,1.344,1.058,4.022,4.022,0,0,0,1.773.372,5.332,5.332,0,0,0,2-.343,7.093,7.093,0,0,0,1.773-1.144l2.431,2a7.707,7.707,0,0,1-2.574,1.8A8.934,8.934,0,0,1,301.991,122.74Zm3.689-8.807a3.284,3.284,0,0,0-.772-1.373,3.7,3.7,0,0,0-1.287-.886,4.5,4.5,0,0,0-1.659-.315,3.813,3.813,0,0,0-1.544.286,3.306,3.306,0,0,0-1.23.858,4.288,4.288,0,0,0-.858,1.4h7.349Z" transform="translate(-273.197 -104.096)" fill="#372e9f"/>
            <path id="Tracé_319" data-name="Tracé 319" d="M351.2,111.372,353.8,93.1h.315l7.149,14.412a1.533,1.533,0,0,1,.143.315,3.111,3.111,0,0,0,.172.315,1.533,1.533,0,0,1,.143.315,1.239,1.239,0,0,1,.143.343h-.686a1.749,1.749,0,0,0,.143-.343,3.82,3.82,0,0,0,.172-.343,1.532,1.532,0,0,0,.143-.315,2.783,2.783,0,0,0,.143-.315L368.872,93.1h.315l2.6,18.272h-1.773l-1.687-12.41c-.029-.114-.029-.229-.057-.343s-.029-.229-.057-.343-.029-.229-.057-.343-.029-.229-.057-.343l.458.086-.343.658a7.236,7.236,0,0,1-.343.658l-6.119,12.382h-.458L355.06,98.9l-.172-.343-.172-.343-.172-.343-.172-.343.458-.086c-.029.143-.029.257-.057.372s-.029.257-.057.372c-.029.143-.029.286-.057.4-.029.143-.029.257-.057.372l-1.658,12.382H351.2Z" transform="translate(-313.398 -93.1)" fill="#372e9f"/>
            <path id="Tracé_320" data-name="Tracé 320" d="M435.92,122.783a6.517,6.517,0,0,1-3.517-.972,7.007,7.007,0,0,1-2.488-2.6,7.277,7.277,0,0,1-.915-3.546,7.089,7.089,0,0,1,.915-3.517,6.87,6.87,0,0,1,2.545-2.574,6.517,6.517,0,0,1,3.517-.972,6.323,6.323,0,0,1,3.031.715,6.664,6.664,0,0,1,2.373,2.116v-2.459H443.1V122.44h-1.716v-2.316a7.8,7.8,0,0,1-1.6,1.487,6.377,6.377,0,0,1-1.83.886A7.736,7.736,0,0,1,435.92,122.783Zm.172-1.573a5.5,5.5,0,0,0,2.659-.686,5.355,5.355,0,0,0,2-1.916,5.531,5.531,0,0,0,.743-2.859,5.452,5.452,0,0,0-.715-2.8,5.362,5.362,0,0,0-1.944-1.973,5.144,5.144,0,0,0-2.716-.715A5.236,5.236,0,0,0,431.459,113a5.449,5.449,0,0,0-.686,2.688,5.555,5.555,0,0,0,2.6,4.747A5.007,5.007,0,0,0,436.091,121.21Z" transform="translate(-368.951 -104.168)" fill="#372e9f"/>
            <path id="Tracé_321" data-name="Tracé 321" d="M494.977,127.63a9.732,9.732,0,0,1-3.231-.486,6.314,6.314,0,0,1-2.23-1.4A8.6,8.6,0,0,1,488,123.455h1.887a4.849,4.849,0,0,0,1.973,1.973,6.311,6.311,0,0,0,3,.629,6.616,6.616,0,0,0,2.859-.572,3.751,3.751,0,0,0,1.8-1.716,5.567,5.567,0,0,0,.629-2.8v-1.172a6.222,6.222,0,0,1-2.4,1.916,7.184,7.184,0,0,1-3,.658,7.006,7.006,0,0,1-3.46-.886,6.891,6.891,0,0,1-2.516-9.522,7.312,7.312,0,0,1,2.574-2.545,6.513,6.513,0,0,1,3.374-.915,6.288,6.288,0,0,1,3,.686,8.285,8.285,0,0,1,2.431,2.03v-2.345H501.9v11.667a9.2,9.2,0,0,1-.743,3.86,5.293,5.293,0,0,1-2.316,2.431A8.059,8.059,0,0,1,494.977,127.63Zm.114-6.949a5.551,5.551,0,0,0,2.659-.658,4.76,4.76,0,0,0,1.859-1.83,5.729,5.729,0,0,0-.029-5.49,4.979,4.979,0,0,0-1.916-1.859,5.41,5.41,0,0,0-2.6-.658,5.318,5.318,0,0,0-2.745.715,5.229,5.229,0,0,0-1.973,1.973,5.348,5.348,0,0,0-.715,2.774,5.167,5.167,0,0,0,.629,2.545,5.038,5.038,0,0,0,1.859,1.859A6.718,6.718,0,0,0,495.092,120.681Z" transform="translate(-410.937 -104.096)" fill="#372e9f"/>
            <path id="Tracé_322" data-name="Tracé 322" d="M548.8,122.44v-13.5h1.744v2.431a7.547,7.547,0,0,1,2.316-2.087,5.747,5.747,0,0,1,2.745-.686,4.942,4.942,0,0,1,2.631.686,4.468,4.468,0,0,1,1.744,2.116,8.315,8.315,0,0,1,.629,3.46v7.578h-1.744v-7.349a8.2,8.2,0,0,0-.372-2.716,3.4,3.4,0,0,0-1.144-1.659,3.539,3.539,0,0,0-2.087-.572,4.217,4.217,0,0,0-2.316.686,4.811,4.811,0,0,0-1.744,2,7.053,7.053,0,0,0-.658,3.117v6.491Z" transform="translate(-454.494 -104.168)" fill="#372e9f"/>
            <path id="Tracé_323" data-name="Tracé 323" d="M606.448,123.568a6.4,6.4,0,0,1-3.26-.772,4.633,4.633,0,0,1-2-2.288,9.323,9.323,0,0,1-.686-3.8V109.7h1.83v7.721a4.707,4.707,0,0,0,1.086,3.346,4.037,4.037,0,0,0,3.031,1.115,4.266,4.266,0,0,0,2.259-.543,3.694,3.694,0,0,0,1.373-1.516,5.144,5.144,0,0,0,.458-2.259v-7.835h1.83v7.006a9.325,9.325,0,0,1-.686,3.8,4.775,4.775,0,0,1-2,2.288A6.506,6.506,0,0,1,606.448,123.568Z" transform="translate(-491.411 -104.953)" fill="#372e9f"/>
            <path id="Tracé_324" data-name="Tracé 324" d="M653.875,122.74a4.974,4.974,0,0,1-2.2-.515,4.573,4.573,0,0,1-1.773-1.43l1.087-1.258a4.912,4.912,0,0,0,1.373,1.115,2.915,2.915,0,0,0,1.458.372,2.594,2.594,0,0,0,1.23-.286,2.48,2.48,0,0,0,.915-.8,2,2,0,0,0,.343-1.144,2.518,2.518,0,0,0-.143-.829,2.1,2.1,0,0,0-.457-.658,4.152,4.152,0,0,0-.829-.572c-1.058-.572-1.887-1.058-2.431-1.43a4.737,4.737,0,0,1-1.373-1.344,3.338,3.338,0,0,1-.543-1.887,3.676,3.676,0,0,1,.486-1.859,3.347,3.347,0,0,1,1.344-1.258,3.808,3.808,0,0,1,1.859-.458,4.143,4.143,0,0,1,1.944.458,7.534,7.534,0,0,1,1.8,1.373l-1.115,1.144a5.555,5.555,0,0,0-1.315-.972,2.986,2.986,0,0,0-1.4-.343,2.467,2.467,0,0,0-1.029.229,2.065,2.065,0,0,0-.743.658,1.455,1.455,0,0,0-.286.915,1.727,1.727,0,0,0,.2.858,2.063,2.063,0,0,0,.543.686,5.058,5.058,0,0,0,.915.629c1.087.6,1.916,1.087,2.459,1.458a4.677,4.677,0,0,1,1.287,1.315,3.246,3.246,0,0,1,.457,1.8,3.908,3.908,0,0,1-.515,1.973,4.107,4.107,0,0,1-1.43,1.458A3.747,3.747,0,0,1,653.875,122.74Z" transform="translate(-526.685 -104.096)" fill="#372e9f"/>
        </g>
        <path id="Tracé_325" data-name="Tracé 325" d="M91.523,98.9H71.335A7.438,7.438,0,0,1,63.9,91.465V71.335A7.438,7.438,0,0,1,71.335,63.9H91.523a7.438,7.438,0,0,1,7.435,7.435v20.1A7.444,7.444,0,0,1,91.523,98.9Z" transform="translate(0 0)" fill="#372e9f"/>
        <g id="Groupe_13350" data-name="Groupe 13350" transform="translate(70.93 72.246)">
            <path id="Tracé_326" data-name="Tracé 326" d="M92.434,94.434A2.011,2.011,0,0,0,90.4,93.09a2.042,2.042,0,0,0-1.8,2.716l5.147,14.24a2.008,2.008,0,0,0,3.775-1.373Z" transform="translate(-88.483 -93.086)" fill="#fff"/>
            <path id="Tracé_327" data-name="Tracé 327" d="M128.625,93.09a2.034,2.034,0,0,0-2.03,1.344l-3.231,8.979-1.43-3.946a2.011,2.011,0,0,0-2.03-1.344,2.042,2.042,0,0,0-1.8,2.717l3.317,9.179a2.067,2.067,0,0,0,.658.886l.057.057c.057.029.086.057.143.086.029.029.086.029.114.057.057.029.086.057.143.057.086.029.143.057.229.086.029,0,.086.029.114.029.057,0,.114.029.172.029h.572c.057,0,.114-.029.172-.029.029,0,.086-.029.114-.029.086-.029.143-.057.229-.086.057-.029.086-.057.143-.057.029-.029.086-.029.114-.057.057-.029.086-.057.143-.086.029,0,.029-.029.057-.057a2.254,2.254,0,0,0,.658-.886l5.147-14.24A2.006,2.006,0,0,0,128.625,93.09Z" transform="translate(-109.548 -93.086)" fill="#fff"/>
        </g>
    </g>
</svg>
