<svg xmlns="http://www.w3.org/2000/svg" viewBox="0 0 643.31 215.85"><defs><style>.cls-1{fill:#b70e0c;}.cls-2{fill:#fff;}.cls-3{fill:#640c00;}</style></defs><title>Fichier 2</title><g id="Calque_2" data-name="Calque 2"><g id="Mode_Isolation" data-name="Mode Isolation"><path class="cls-1" d="M572,.07,0,.16.36,146.31c0,38.38,30.09,69.5,67.8,69.54H572.55Z"/><path class="cls-2" d="M66.27,24.62c12.62,0,20.92,5.93,20.92,19.4,0,7.87-3.45,13.15-9.71,16.29,8.09,4,11.86,9.26,11.86,18.21,0,12.83-7.54,20-23.29,20H47.52V24.62ZM54.2,57.72H64.33c10.78,0,16.18-5.18,16.18-13.59S74.57,31.31,67.13,31.31H54.2Zm0,34.17H65.52C78.78,91.89,82,85.64,82,78.52,82,70.33,77,64.4,67.68,64.4H54.2Z"/><path class="cls-2" d="M46.78,99.31V23.88H66.27v1.48h-18V97.83H66.05c7.77,0,13.39-1.78,17.06-5h0q5.49-4.86,5.49-14.28h0c0-8.73-3.52-13.59-11.44-17.55h0l-1.34-.66,1.33-.67c6-3,9.27-8,9.3-15.62h0c0-6.59-2-11.18-5.47-14.19h0c-3.47-3-8.51-4.47-14.71-4.47h0V23.88c6.42,0,11.84,1.5,15.68,4.83h0c3.84,3.32,6,8.43,6,15.31h0c0,7.55-3.17,13-8.85,16.27h0c7.4,4,11,9.54,11,18.23h0c0,6.55-1.94,11.82-6,15.39h0c-4,3.58-10.06,5.4-18,5.4H46.78Zm18.74-6.68H53.46v-29H67.68c4.79,0,8.6,1.54,11.17,4.21h0a15,15,0,0,1,3.9,10.65h0c0,3.66-.83,7.23-3.49,9.88h0c-2.66,2.64-7,4.23-13.73,4.23h0Zm0-1.48c6.52,0,10.42-1.54,12.69-3.8h0c2.28-2.26,3.06-5.37,3.06-8.83h0C81.2,70.64,76.6,65.2,67.68,65.14H54.94v26ZM54.2,58.46h-.74V30.56H67.13a14.77,14.77,0,0,1,10,3.49h0a13.11,13.11,0,0,1,4.14,10.08h0c0,4.36-1.42,8-4.3,10.51h0c-2.88,2.5-7.12,3.82-12.62,3.82H54.2ZM64.33,57c10.56-.09,15.36-4.81,15.44-12.84h0c0-7.9-5.49-12-12.64-12.08H54.94V57Z"/><path class="cls-2" d="M110.36,81c2.15,5,9.17,12.61,19.19,12.61,7.87,0,14.66-4.1,20.48-8.94v7.54C145.29,97,136.66,99.87,130,99.87c-16.71,0-28-12.62-28-29S114,43.16,130.19,43.16a24.88,24.88,0,0,1,21.35,12.61Zm31.37-26.85a15.72,15.72,0,0,0-11.54-4.74c-12.71,0-22,9.38-22,21.57a20,20,0,0,0,.44,4.41Z"/><path class="cls-2" d="M109.16,92a30.42,30.42,0,0,1-8-21.15h0a28,28,0,0,1,8.28-20.53h0a29.33,29.33,0,0,1,20.7-7.92h0a25.58,25.58,0,0,1,22,13h0l.32.61-41.2,25.25c2.32,4.73,9,11.61,18.23,11.58h0c7.6,0,14.25-4,20-8.77h0l1.21-1v9.44l-.21.22c-5,4.93-13.69,7.85-20.58,7.87h0A28.09,28.09,0,0,1,109.16,92Zm21-48.12c-15.82,0-27.47,11-27.5,27h0c0,16,11,28.23,27.29,28.26h0c6.37,0,14.73-2.8,19.31-7.23h0V86.23c-5.61,4.45-12.16,8.12-19.75,8.12h0c-10.42,0-17.6-7.87-19.86-13.06h0l-.26-.59,41.13-25.2a24.26,24.26,0,0,0-20.31-11.6h-.05ZM107.92,75.56a20.64,20.64,0,0,1-.46-4.58h0a22.09,22.09,0,0,1,6.45-15.88h0a22.83,22.83,0,0,1,16.28-6.43h0a16.38,16.38,0,0,1,12.08,5h0l-.54.5.54-.5.6.65L108.15,76.59l-.23-1ZM109,71a23.19,23.19,0,0,0,.21,3.19h0L140.55,54a15.15,15.15,0,0,0-10.36-3.87h0c-12.33,0-21.23,9-21.24,20.83Z"/><path class="cls-2" d="M170.73,55.23h.21C174.83,46,181,43.16,191,43.16l-2.69,6.37a15.77,15.77,0,0,0-2.48-.12c-6.79,0-15.09,8.41-15.09,22V98.57l-6.26,1.3V44.46l6.26-1.3Z"/><path class="cls-2" d="M163.73,43.86l7.74-1.61V52.37c4-7.51,10.36-10,19.52-9.95h1.12l-3.36,7.94-.58-.1a15.92,15.92,0,0,0-2.35-.11h0c-3.09,0-6.69,2-9.51,5.62h0a25.53,25.53,0,0,0-4.84,15.64h0V99.18l-7.74,1.6V43.86Zm1.48,1.2V99L170,98V71.41c0-13.87,8.44-22.68,15.84-22.74h0c.65,0,1.37,0,2,0h0l2-4.8c-9.21.25-14.54,2.94-18.24,11.6h0l-.19.45H170V44.07l-4.77,1Z"/><path class="cls-2" d="M264.29,81c2.14,5,9.16,12.61,19.2,12.61,7.86,0,14.65-4.1,20.47-8.94v7.54c-4.74,4.74-13.37,7.66-20,7.66-16.71,0-28-12.62-28-29S268,43.16,284.12,43.16a24.89,24.89,0,0,1,21.35,12.61Zm31.37-26.85a15.72,15.72,0,0,0-11.54-4.74c-12.71,0-22,9.38-22,21.57a20,20,0,0,0,.44,4.41Z"/><path class="cls-2" d="M263.09,92a30.42,30.42,0,0,1-7.95-21.15h0a28,28,0,0,1,8.28-20.53h0a29.31,29.31,0,0,1,20.7-7.92h0a25.58,25.58,0,0,1,22,13h0l.32.61-41.2,25.25c2.32,4.73,9,11.61,18.25,11.58h0c7.59,0,14.23-4,20-8.77h0l1.22-1v9.44l-.22.22c-5,4.93-13.69,7.85-20.58,7.87h0A28.09,28.09,0,0,1,263.09,92Zm21-48.12c-15.81,0-27.47,11-27.5,27h0c0,16,11,28.23,27.29,28.26h0c6.37,0,14.74-2.81,19.31-7.23h0V86.23c-5.61,4.45-12.15,8.12-19.73,8.12h0c-10.45,0-17.62-7.87-19.88-13.06h0l-.26-.59,41.13-25.2a24.26,24.26,0,0,0-20.32-11.6h0ZM261.84,75.56a21.9,21.9,0,0,1-.46-4.58h0a22.09,22.09,0,0,1,6.45-15.88h0a22.86,22.86,0,0,1,16.29-6.43h0a16.42,16.42,0,0,1,12.09,5h0l-.55.5.55-.5.6.65L262.08,76.59l-.24-1Zm1-4.58a21.75,21.75,0,0,0,.22,3.19h0L294.49,54a15.15,15.15,0,0,0-10.37-3.88h0c-12.33,0-21.23,9-21.25,20.83Z"/><path class="cls-2" d="M324.66,55.23h.21c3.88-9.27,10-12.07,20.05-12.07l-2.7,6.37a15.71,15.71,0,0,0-2.48-.12c-6.78,0-15.08,8.41-15.08,22V98.57l-6.26,1.3V44.46l6.26-1.3Z"/><path class="cls-2" d="M317.66,43.86l7.74-1.61V52.36c4-7.51,10.36-10,19.52-9.94H346l-3.37,7.94-.58-.1a14.8,14.8,0,0,0-2.35-.1h0c-3.08,0-6.68,1.94-9.5,5.61h0a25.53,25.53,0,0,0-4.84,15.64h0V99.18l-7.74,1.6V43.86Zm1.48,1.2V99l4.77-1V71.41c0-13.87,8.44-22.68,15.83-22.74h0c.66,0,1.37,0,2,0h0l2-4.8c-9.22.25-14.55,2.94-18.24,11.6h0l-.19.46h-1.45V44.07l-4.77,1Z"/><path class="cls-2" d="M47.08,173.32V110.58l6.68-.38v56.44H80.71l-2,6.68Z"/><path class="cls-2" d="M47.08,174.06v-.74h0v.74h-.74V109.88l8.16-.46v56.47H81.71l-2.49,8.17Zm31-1.48,1.59-5.2H53V111l-5.2.29v61.3Z"/><path class="cls-2" d="M97.31,155.75c2.16,5,9.17,12.62,19.19,12.62,7.87,0,14.66-4.1,20.48-9V167c-4.74,4.75-13.36,7.65-20,7.65-16.71,0-28-12.61-28-29s12.08-27.7,28.24-27.7a24.86,24.86,0,0,1,21.35,12.61Zm31.37-26.84a15.62,15.62,0,0,0-11.54-4.75c-12.71,0-22,9.38-22,21.56a20.92,20.92,0,0,0,.43,4.43Z"/><path class="cls-2" d="M96.11,166.77a30.44,30.44,0,0,1-8-21.16h0a28,28,0,0,1,8.28-20.52h0a29.33,29.33,0,0,1,20.7-7.92h0a25.57,25.57,0,0,1,22,13h0l.32.61L98.26,156c2.33,4.73,9,11.62,18.24,11.59h0c7.6,0,14.24-4,20-8.79h0l1.22-1v9.44l-.22.21c-5,4.94-13.68,7.86-20.58,7.88h0a28.08,28.08,0,0,1-20.82-8.59Zm21-48.12c-15.81,0-27.47,11-27.5,27h0c0,16,11,28.24,27.29,28.26h0c6.38,0,14.73-2.79,19.31-7.22h0V161c-5.61,4.46-12.15,8.13-19.74,8.13h0c-10.44,0-17.6-7.88-19.87-13.07h0l-.26-.59,41.13-25.2a24.26,24.26,0,0,0-20.32-11.6h0ZM94.86,150.31a21.36,21.36,0,0,1-.44-4.59h0a22,22,0,0,1,6.44-15.87h0a22.82,22.82,0,0,1,16.28-6.43h0a16.35,16.35,0,0,1,12.08,5h0l-.54.5.54-.5.6.64L95.1,151.34l-.24-1Zm1-4.59a22,22,0,0,0,.22,3.2h0l31.39-20.14a15.12,15.12,0,0,0-10.37-3.88h0c-12.33,0-21.22,9-21.24,20.82Z"/><path class="cls-2" d="M169.64,159.52l19.51-41.61,6.68,1.3-26.08,55.4h-.22l-26.08-55.4,6-1.3Z"/><path class="cls-2" d="M169.75,175.36h-.69l-26.68-56.69,7.51-1.61,19.74,40.74,19.09-40.73,8.19,1.59-26.69,56.7Zm-25.23-55.63,25.12,53.37,25.11-53.35-5.17-1-19.27,41.09-.66,1.41-20.58-42.49-4.55,1Zm25.12,39.79.67-.32-.67.32Z"/><path class="cls-2" d="M230.66,79.82c6.78-2.7,11.75-9.17,11.75-16.6,0-6.37-3.56-11.11-8.19-14.88l.21-.22a13.14,13.14,0,0,0,2.92.33,14,14,0,0,0,4.73-.76l1.83-6.36a88.66,88.66,0,0,1-17.78,2.05c-2.15,0-4.42-.22-6.58-.22-12.18,0-22.53,7.55-22.53,20.49,0,6.25,4.86,12.82,10.46,15.3l-2.26,7.12c4.85-1.83,8.94-3.13,14.12-3.13,8.62,0,17.46,6.36,17.46,15.63,0,5.27-2.5,8.7-7.66,11-.7.26-3.72,1.6-3.85,1.64v0c-5.92,2.33-10.28,4.81-14.15,9.91h-.21V109.52l-6.26-.47.15,66.24,6.26-1.29-.15-33.27c0-13.09,7-19.31,15-23.52,1-.52,2.88-1.25,4.59-2s12.57-4,12.57-17.5C243.05,89.2,238.09,83.26,230.66,79.82Zm-27.38-16.5c0-9,8.3-14.34,16.38-14.34s16.49,5.29,16.49,14.34c0,8.84-8.62,13.8-16.6,13.8C211.36,77.12,203.28,72.16,203.28,63.32Z"/><path class="cls-2" d="M203.93,108.25l7.74.58v10.42c3.6-4.18,7.7-6.49,12.89-8.57h0v-.07l.51-.15h0l.11,0h0l.37-.16h0l1.15-.5h0c.87-.37,1.78-.77,2.14-.9h0c5-2.23,7.18-5.26,7.22-10.28h0a13.85,13.85,0,0,0-5.23-10.72h0a18.27,18.27,0,0,0-11.49-4.17h0c-5.05,0-9,1.26-13.86,3.08h0l-1.43.54,2.52-8c-5.61-2.8-10.26-9.29-10.29-15.69h0a20,20,0,0,1,7-15.66h0a25,25,0,0,1,16.31-5.57h0c2.21,0,4.47.22,6.58.22h0a88.24,88.24,0,0,0,17.63-2h0l1.2-.24-2.27,7.92-.38.12a15.07,15.07,0,0,1-5,.79h0c-.36,0-.71,0-1.06,0h0c3.94,3.62,6.86,8.18,6.86,14.06h0A18.83,18.83,0,0,1,232.4,79.85h0c6.83,3.61,11.41,9.6,11.39,17.86h0c0,14-11.36,17.49-13,18.18h0c-1.73.76-3.6,1.49-4.54,2h0c-7.9,4.2-14.54,10.06-14.57,22.85h0l.15,33.88-7.74,1.61-.15-68Zm1.63,66.13,4.77-1-.14-32.66c0-13.39,7.25-19.95,15.36-24.18h0c1.08-.55,2.93-1.27,4.63-2h0c1.87-.84,12.1-3.76,12.13-16.82h0c0-8.2-4.71-13.83-12-17.22h0l.31-.67.28.69-.28-.69-.31.67-1.56-.73,1.6-.63c6.53-2.6,11.29-8.82,11.28-15.92h0c0-6.06-3.36-10.58-7.91-14.3h0l-.63-.51.57-.58.5-.52.4.1a13,13,0,0,0,2.76.3h0a12.75,12.75,0,0,0,4.13-.6h0l1.38-4.8a87.63,87.63,0,0,1-16.73,1.82h0c-2.21,0-4.47-.22-6.58-.22h0c-11.9,0-21.77,7.26-21.78,19.75h0c0,5.87,4.68,12.29,10,14.62h0l.61.27-2,6.3a36.27,36.27,0,0,1,13-2.64h0c8.95,0,18.17,6.58,18.2,16.37h0c0,5.52-2.77,9.35-8.14,11.66h0c-.31.11-1.25.52-2.1.88h0l-1.28.56h0v0l-.46.18c-5.87,2.32-10.05,4.71-13.83,9.66h0l-.22.3h-1.32V110.21l-4.77-.36.14,64.53Zm2.33-100.26a13.28,13.28,0,0,1-5.35-10.8h0c0-9.58,8.76-15.07,17.12-15.08h0c8.37,0,17.21,5.5,17.23,15.08h0c0,9.41-9.11,14.52-17.34,14.54h0a19.26,19.26,0,0,1-11.66-3.74ZM204,63.32A11.81,11.81,0,0,0,208.8,73h0a17.84,17.84,0,0,0,10.75,3.43h0a18.59,18.59,0,0,0,10.85-3.44h0a11.74,11.74,0,0,0,5-9.62h0a12.42,12.42,0,0,0-4.93-10h0a17.66,17.66,0,0,0-10.82-3.61h0a17.46,17.46,0,0,0-10.76,3.61h0a12.46,12.46,0,0,0-4.88,10Z"/><path class="cls-2" d="M243.69,121.15a41.49,41.49,0,0,1,15.74-3.24c8.41,0,16.93,4.42,16.93,13.69v41.72l-6.26,1.29v-6.79h-.21c-2.16,4-6.9,6.79-13.26,6.79-11.11,0-20.6-7.11-20.6-18.86,0-12,7.87-20.48,19.85-20.48,5.39,0,10.55,3,14.22,6.25v-9.06c0-4.53-5.49-8.3-12.71-8.3-5.18,0-11,2.7-15.75,4.31Zm13.37,47.22c7.65,0,13-5.72,13-13.37,0-8-5.49-13.48-13.25-13.48-8.31,0-14.56,5.59-14.56,14.23C242.29,163.73,249.83,168.37,257.06,168.37Z"/><path class="cls-2" d="M269.36,170c-2.63,3.28-7.12,5.41-12.73,5.41h0a22.79,22.79,0,0,1-14.95-5.21h0a18.58,18.58,0,0,1-6.39-14.4h0a21.69,21.69,0,0,1,5.64-15.25h0a20.23,20.23,0,0,1,14.95-6h0c5.07,0,9.84,2.52,13.48,5.41h0v-7.47c0-2-1.18-3.81-3.32-5.23h0a15.86,15.86,0,0,0-8.66-2.33h0c-4.92,0-10.71,2.64-15.5,4.27h0l-1.33.46,2.42-8.69.1-.34.33-.14a42.38,42.38,0,0,1,16-3.29h0a21,21,0,0,1,12.05,3.5h0a13,13,0,0,1,5.62,10.93h0v42.32l-7.74,1.6V170ZM255.88,136c-11.59,0-19.06,8.1-19.1,19.74h0c0,11.29,9,18.09,19.85,18.12h0c6.15,0,10.6-2.7,12.61-6.4h0l.21-.39h1.39v6.62l4.78-1V131.6a11.44,11.44,0,0,0-5-9.72h0a19.59,19.59,0,0,0-11.19-3.23h0a40.77,40.77,0,0,0-15.13,3h0l-1.56,5.61c4.44-1.6,9.72-3.87,14.64-3.88h0c7.44,0,13.38,3.84,13.46,9h0v10.7l-1.23-1.08C266,138.92,261,136,255.91,136h0Zm1.18,33.1v-1.48c7.25,0,12.27-5.34,12.3-12.63h0c0-7.63-5.12-12.7-12.51-12.74h0c-8,0-13.79,5.24-13.82,13.49h0a10.75,10.75,0,0,0,4.39,8.71h0a16,16,0,0,0,9.64,3.17h0v1.48c-7.5,0-15.49-4.84-15.52-13.36h0a14.71,14.71,0,0,1,4.4-10.89h0a15.56,15.56,0,0,1,10.91-4.08h0a13.83,13.83,0,0,1,10.06,4h0A14.3,14.3,0,0,1,270.84,155h0A14.29,14.29,0,0,1,267,165.07h0a13.56,13.56,0,0,1-9.91,4h0Z"/><path class="cls-2" d="M299.64,117.91v35.9c0,9.7,3.88,15.2,13.15,15.2,10.13,0,16.6-3.67,16.6-25.45V119.21l6.26-1.3v55.41l-6.26.86v-8.94h-.21c-2.17,4.84-8.63,9.37-16.93,9.37-13.69,0-18.86-7.76-18.86-20.05V119.21Z"/><path class="cls-2" d="M297.12,169.68c-3.17-3.67-4.48-8.88-4.48-15.12h0v-36l6.84-1.42.9-.18v36.81c0,4.76,1,8.38,2.93,10.77h0c2,2.38,5,3.68,9.48,3.69h0c5,0,8.83-.89,11.52-4.28h0c2.7-3.39,4.35-9.6,4.34-20.43h0v-25l7.74-1.6v57L328.65,175v-7.39c-3,4.26-9,7.7-16.4,7.72h-.05c-6.95,0-11.91-2-15.08-5.68Zm-3-49.87v34.75c0,6.05,1.28,10.87,4.11,14.15h0c2.84,3.28,7.29,5.15,14,5.16h0c8,0,14.25-4.42,16.25-8.93h0l.2-.44h1.43v8.83l4.77-.66V118.82l-4.77,1v23.75c0,11-1.6,17.47-4.66,21.36h0c-3.08,3.89-7.55,4.84-12.68,4.83h0c-4.77,0-8.34-1.44-10.63-4.23h0c-2.29-2.79-3.26-6.77-3.27-11.71h0v-35l-4.76,1Z"/><path class="cls-2" d="M361.94,173.32l-6.25,1.29v-78l6.25-1.3Z"/><path class="cls-2" d="M355,96l7.73-1.6v79.56L355,175.53V96Zm1.48,1.21V173.7l4.76-1V96.18l-4.76,1Z"/><path class="cls-2" d="M383.94,105.94l6.25-3.44v16.71h14.65v6.24H390.19v33.43c0,6.57,2.8,9,9.69,9a41,41,0,0,0,5.07-.21v5.83a31,31,0,0,1-5.6.64c-9.92,0-15.41-5.71-15.41-15.41V125.45h-7.23l1.52-6.24h5.71Z"/><path class="cls-2" d="M387.39,170.63c-2.78-2.81-4.2-6.88-4.2-11.86h0V126.19h-7.42l1.87-7.73h5.55V105.51l7.74-4.28v17.23h14.66v7.73H390.93v32.69c0,3.2.68,5.21,2,6.44h0c1.34,1.24,3.56,1.86,6.93,1.86h0a38.8,38.8,0,0,0,5-.21h0l.84-.11v7.29l-.61.12a31.65,31.65,0,0,1-5.73.65h0c-5.1,0-9.17-1.47-12-4.29Zm-9.74-45.92h7v34.06c.08,9.4,5.06,14.59,14.67,14.67h0a27.49,27.49,0,0,0,4.85-.52h0v-4.39c-1.47.14-2.87.14-4.32.14h0c-3.52,0-6.15-.62-7.93-2.26h0c-1.79-1.64-2.51-4.15-2.51-7.53h0V124.71H404.1V120H389.44v-16.2l-4.76,2.63V120h-5.87l-1.16,4.76Z"/><polygon class="cls-1" points="641.65 48.44 643.11 58.39 643.31 161.57 430.54 161.25 430.66 0.31 578.19 0.01 589.79 47.08 641.65 48.44"/><path class="cls-3" d="M643.15,129.89V56.27c0-31.54-20.51-56.27-56-56.27h-9.34L578,129.89h65.17"/><path class="cls-3" d="M643.26,146.12l-84,.2L559.06,0H532.35c3.11,5.77,4.12,14.65,4.12,25.34,0,17.31-3.51,28.92-20.65,34.61v.44c22,4,25.48,19.72,25.48,40.1,0,29.58-11,45.8-38.86,45.8H430.31v12.6c0,31.53,25.72,56.89,57.32,56.89H643.27Z"/><path class="cls-3" d="M430.54.11l-.17,53.52h57.35c22.4,0,30.09-5,30.09-30.67C517.81,6.43,513.16.76,504,.1Z"/><path class="cls-3" d="M522.64,102.28c0-21.69-3.29-32.65-27.89-32.21H430.37v59.82h62.17c20.21,0,30.1-2.41,30.1-27.61"/></g></g></svg>