<svg xmlns="http://www.w3.org/2000/svg" width="63.462" height="19" viewBox="0 0 63.462 19">
  <g id="Groupe_1" data-name="Groupe 1" transform="translate(-981 -145)">
    <g id="Groupe_13325" data-name="Groupe 13325" transform="translate(981 145)">
      <path id="Tracé_260" data-name="Tracé 260" d="M123.273,32.144l-2.013-9.9h2.263l.883,4.664c.037.23.076.461.117.69s.08.455.117.676.072.457.109.682.069.457.1.7l-.248-.014q.054-.289.109-.565c.037-.185.074-.369.109-.551.045-.266.094-.536.145-.807s.1-.536.158-.793l1.159-4.676h2.208l1.174,4.649c.054.266.113.555.172.862s.113.6.158.889l.236,1.09h-.276l.207-1.434c.045-.23.088-.463.125-.7s.074-.471.109-.711l.856-4.649h2.276l-2,9.9h-2.636l-1.194-4.717q-.123-.47-.221-1.014t-.166-1.069a1.709,1.709,0,0,1-.082-.332,3.4,3.4,0,0,0-.069-.344l.4-.014c-.027.193-.054.377-.082.551s-.059.35-.1.524c-.047.284-.094.573-.145.862s-.1.567-.145.835l-1.159,4.719h-2.648Z" transform="translate(-96.425 -17.685)" fill="#372e9f"/>
      <path id="Tracé_261" data-name="Tracé 261" d="M184.892,41.616a4.017,4.017,0,0,1-2.036-.5,3.583,3.583,0,0,1-1.366-1.386,4.062,4.062,0,0,1-.489-2,4.007,4.007,0,0,1,.463-1.89,3.573,3.573,0,0,1,1.331-1.411,3.835,3.835,0,0,1,2.042-.53,4.075,4.075,0,0,1,2.063.51,3.468,3.468,0,0,1,1.372,1.434,4.436,4.436,0,0,1,.483,2.083V38.2a1.732,1.732,0,0,1-.014.236h-5.562a1.615,1.615,0,0,0,.318.731,1.561,1.561,0,0,0,.6.448,2.033,2.033,0,0,0,.821.158,2.371,2.371,0,0,0,.911-.166,3.475,3.475,0,0,0,.842-.524l1.657,1.088a4.177,4.177,0,0,1-1.448,1.055,4.771,4.771,0,0,1-1.987.393Zm1.629-4.786a1.633,1.633,0,0,0-.318-.655,1.3,1.3,0,0,0-.572-.4,2.164,2.164,0,0,0-.766-.131,1.786,1.786,0,0,0-.706.137,1.474,1.474,0,0,0-.543.408,1.959,1.959,0,0,0-.352.641Z" transform="translate(-143.93 -26.95)" fill="#372e9f"/>
      <path id="Tracé_262" data-name="Tracé 262" d="M231.787,31.418a5.884,5.884,0,0,1-2.931-.717,5.115,5.115,0,0,1-1.966-1.9,5.009,5.009,0,0,1-.69-2.566,5.115,5.115,0,0,1,2.615-4.489,5.558,5.558,0,0,1,2.823-.711,6.446,6.446,0,0,1,1.683.213,5.828,5.828,0,0,1,1.483.635,7.871,7.871,0,0,1,1.372,1.069l-.76.717a5.988,5.988,0,0,0-1.806-1.239A4.837,4.837,0,0,0,231.664,22a4.652,4.652,0,0,0-2.255.551,4.13,4.13,0,0,0-1.593,1.52,4.066,4.066,0,0,0-.58,2.138,3.939,3.939,0,0,0,.594,2.112,4.3,4.3,0,0,0,1.643,1.559,4.756,4.756,0,0,0,2.345.58,4.4,4.4,0,0,0,1.861-.393,3.488,3.488,0,0,0,1.4-1.159,3.391,3.391,0,0,0,.6-1.827l.4.318h-3.586v-.971h4.277v.027a5.36,5.36,0,0,1-.626,2.66,4.242,4.242,0,0,1-1.751,1.71,5.494,5.494,0,0,1-2.6.594Z" transform="translate(-179.872 -16.723)" fill="#372e9f"/>
      <path id="Tracé_263" data-name="Tracé 263" d="M285.61,32.144v-9.9h4.967V23.2H286.6V26.31h3.973v.965H286.6v4.871Z" transform="translate(-227.114 -17.685)" fill="#372e9f"/>
      <rect id="Rectangle_14151" data-name="Rectangle 14151" width="19.039" height="19" rx="4" fill="#372e9f"/>
      <path id="Tracé_264" data-name="Tracé 264" d="M20.8,22.844a1.1,1.1,0,1,0-2.069.748l2.8,7.728a1.1,1.1,0,0,0,2.063-.745Z" transform="translate(-14.837 -17.578)" fill="#fff"/>
      <path id="Tracé_265" data-name="Tracé 265" d="M46.84,22.153a1.1,1.1,0,0,0-1.1.727l-1.757,4.874-.771-2.138a1.1,1.1,0,1,0-2.07.748l1.808,4.989a1.08,1.08,0,0,0,.356.485l.031.024c.024.018.051.035.076.051s.041.023.061.035a.719.719,0,0,0,.074.037,1.294,1.294,0,0,0,.125.045.626.626,0,0,0,.061.014c.031.008.061.012.094.018a.594.594,0,0,1,.061.008c.01,0,.021,0,.033,0h.059a.576.576,0,0,0,.059,0l.033,0a.316.316,0,0,0,.061-.008.7.7,0,0,0,.094-.018c.021,0,.041-.008.061-.014a.8.8,0,0,0,.123-.045c.024-.01.049-.024.074-.037s.041-.023.061-.033a.719.719,0,0,0,.078-.051l.032-.024a1.091,1.091,0,0,0,.356-.485l2.8-7.728a1.1,1.1,0,0,0-.974-1.474Z" transform="translate(-32.662 -17.615)" fill="#fff"/>
    </g>
  </g>
</svg>
