<svg xmlns="http://www.w3.org/2000/svg" width="94.256" height="19" viewBox="0 0 94.256 19">
  <g id="WeMagnus-Logo-horizontal-sans-baseline-BlueX-RVB" transform="translate(-63.9 -63.9)">
    <g id="Groupe_13349" data-name="Groupe 13349" transform="translate(86.89 68.433)">
      <path id="W" d="M221.251,103.019,219,93.1h1.863l1.149,5.091c.031.171.078.357.124.543s.078.357.124.543c.031.186.078.372.109.543.031.186.078.357.109.543h-.4c.047-.186.093-.372.139-.543.047-.186.093-.357.14-.543s.093-.372.14-.543c.047-.186.093-.357.139-.543l1.428-5.076h1.568l1.428,5.03.14.559c.047.186.109.372.155.559l.295,1.118h-.4l.233-1.133c.047-.186.093-.372.124-.559s.078-.372.109-.559l1.118-5.014h1.863l-2.2,9.9h-1.816l-1.52-5.309c-.062-.217-.124-.419-.186-.636s-.109-.434-.186-.651l-.093-.372-.093-.372h.434c-.031.171-.078.326-.109.481s-.078.295-.109.45c-.047.186-.093.388-.155.559-.062.186-.109.372-.155.559l-1.474,5.309h-1.77Z" transform="translate(-219 -93.1)" fill="#372e9f"/>
      <path id="e" d="M298.749,116.23a3.9,3.9,0,0,1-2.018-.512,3.649,3.649,0,0,1-1.351-1.4,4.145,4.145,0,0,1-.481-1.954,4.022,4.022,0,0,1,.466-1.894A3.683,3.683,0,0,1,298.7,108.5a4,4,0,0,1,2.034.512,3.662,3.662,0,0,1,1.382,1.411,4.257,4.257,0,0,1,.5,2.049v.2a.884.884,0,0,1-.016.2h-5.914a2.117,2.117,0,0,0,.372.916,1.775,1.775,0,0,0,.73.574,2.183,2.183,0,0,0,.963.2,2.894,2.894,0,0,0,1.086-.186,3.85,3.85,0,0,0,.963-.621l1.32,1.086a4.183,4.183,0,0,1-1.4.977A4.85,4.85,0,0,1,298.749,116.23Zm2-4.781a1.783,1.783,0,0,0-.419-.745,2.008,2.008,0,0,0-.7-.481,2.443,2.443,0,0,0-.9-.171,2.07,2.07,0,0,0-.838.155,1.8,1.8,0,0,0-.668.466,2.328,2.328,0,0,0-.466.76h3.989Z" transform="translate(-283.118 -106.109)" fill="#372e9f"/>
      <path id="Tracé_319" data-name="Tracé 319" d="M351.2,103.019l1.411-9.919h.171l3.881,7.824a.834.834,0,0,1,.078.171,1.686,1.686,0,0,0,.093.171.831.831,0,0,1,.078.171.672.672,0,0,1,.078.186h-.372a.951.951,0,0,0,.078-.186,2.078,2.078,0,0,0,.093-.186.832.832,0,0,0,.078-.171,1.506,1.506,0,0,0,.078-.171l3.85-7.808h.171l1.411,9.919h-.962l-.916-6.737c-.016-.062-.016-.124-.031-.186s-.016-.124-.031-.186-.016-.124-.031-.186-.016-.124-.031-.186l.249.047-.186.357a3.915,3.915,0,0,1-.186.357l-3.322,6.722h-.249L353.3,96.249l-.093-.186-.093-.186-.093-.186-.093-.186.249-.047c-.016.078-.016.14-.031.2s-.016.14-.031.2c-.016.078-.016.155-.031.217-.016.078-.016.14-.031.2l-.9,6.722H351.2Z" transform="translate(-330.679 -93.1)" fill="#372e9f"/>
      <path id="Tracé_320" data-name="Tracé 320" d="M432.757,116.3a3.538,3.538,0,0,1-1.909-.528,3.8,3.8,0,0,1-1.351-1.411,3.95,3.95,0,0,1-.5-1.925,3.849,3.849,0,0,1,.5-1.909,3.73,3.73,0,0,1,1.382-1.4,3.538,3.538,0,0,1,1.909-.528,3.432,3.432,0,0,1,1.645.388,3.618,3.618,0,0,1,1.288,1.149V108.8h.933v7.31h-.932v-1.257a4.235,4.235,0,0,1-.869.807,3.462,3.462,0,0,1-.993.481,4.2,4.2,0,0,1-1.1.155Zm.093-.854a2.985,2.985,0,0,0,1.443-.372,2.907,2.907,0,0,0,1.086-1.04,3,3,0,0,0,.4-1.552,2.96,2.96,0,0,0-.388-1.52,2.911,2.911,0,0,0-1.055-1.071,2.793,2.793,0,0,0-1.474-.388,2.842,2.842,0,0,0-2.53,1.487,2.958,2.958,0,0,0-.372,1.459,3.015,3.015,0,0,0,1.411,2.577,2.718,2.718,0,0,0,1.475.421Z" transform="translate(-396.402 -106.195)" fill="#372e9f"/>
      <path id="Tracé_321" data-name="Tracé 321" d="M491.7,118.885a5.283,5.283,0,0,1-1.754-.264,3.428,3.428,0,0,1-1.211-.76,4.669,4.669,0,0,1-.823-1.243h1.024A2.632,2.632,0,0,0,490,117.69a3.426,3.426,0,0,0,1.629.341,3.591,3.591,0,0,0,1.552-.311,2.036,2.036,0,0,0,.977-.932,3.022,3.022,0,0,0,.341-1.52v-.636a3.378,3.378,0,0,1-1.3,1.04,3.9,3.9,0,0,1-1.629.357,3.8,3.8,0,0,1-1.878-.481,3.741,3.741,0,0,1-1.366-5.169,3.969,3.969,0,0,1,1.4-1.382,3.535,3.535,0,0,1,1.832-.5,3.413,3.413,0,0,1,1.629.372,4.5,4.5,0,0,1,1.32,1.1V108.7h.949v6.334a4.994,4.994,0,0,1-.4,2.1,2.873,2.873,0,0,1-1.257,1.32,4.375,4.375,0,0,1-2.1.433Zm.062-3.772a3.014,3.014,0,0,0,1.443-.357,2.584,2.584,0,0,0,1.009-.993,3.11,3.11,0,0,0-.016-2.98,2.7,2.7,0,0,0-1.04-1.009,2.937,2.937,0,0,0-1.411-.357,2.887,2.887,0,0,0-1.49.388,2.838,2.838,0,0,0-1.071,1.071,2.9,2.9,0,0,0-.388,1.506,2.8,2.8,0,0,0,.341,1.382,2.735,2.735,0,0,0,1.009,1.009,3.647,3.647,0,0,0,1.614.341Z" transform="translate(-446.074 -106.11)" fill="#372e9f"/>
      <path id="Tracé_322" data-name="Tracé 322" d="M548.8,116.112v-7.329h.947v1.32A4.1,4.1,0,0,1,551,108.97a3.12,3.12,0,0,1,1.49-.372,2.683,2.683,0,0,1,1.428.372,2.426,2.426,0,0,1,.947,1.149,4.514,4.514,0,0,1,.341,1.878v4.114h-.947v-3.989a4.451,4.451,0,0,0-.2-1.474,1.846,1.846,0,0,0-.621-.9,1.921,1.921,0,0,0-1.133-.311,2.289,2.289,0,0,0-1.257.372,2.612,2.612,0,0,0-.947,1.086,3.829,3.829,0,0,0-.357,1.692v3.524Z" transform="translate(-497.605 -106.193)" fill="#372e9f"/>
      <path id="Tracé_323" data-name="Tracé 323" d="M603.728,117.228a3.474,3.474,0,0,1-1.77-.419,2.515,2.515,0,0,1-1.086-1.242,5.06,5.06,0,0,1-.372-2.063v-3.8h.993v4.191a2.555,2.555,0,0,0,.59,1.816,2.191,2.191,0,0,0,1.645.605,2.316,2.316,0,0,0,1.226-.295,2.005,2.005,0,0,0,.745-.823,2.793,2.793,0,0,0,.249-1.226v-4.253h.993v3.8a5.06,5.06,0,0,1-.372,2.063,2.592,2.592,0,0,1-1.086,1.242,3.532,3.532,0,0,1-1.756.4Z" transform="translate(-541.279 -107.123)" fill="#372e9f"/>
      <path id="Tracé_324" data-name="Tracé 324" d="M652.059,116.23a2.7,2.7,0,0,1-1.194-.28,2.483,2.483,0,0,1-.963-.776l.59-.683a2.665,2.665,0,0,0,.745.605,1.582,1.582,0,0,0,.791.2,1.408,1.408,0,0,0,.668-.155,1.345,1.345,0,0,0,.5-.434,1.086,1.086,0,0,0,.186-.621,1.368,1.368,0,0,0-.078-.45,1.141,1.141,0,0,0-.248-.357,2.255,2.255,0,0,0-.45-.311c-.574-.311-1.024-.574-1.32-.776a2.572,2.572,0,0,1-.745-.73,1.813,1.813,0,0,1-.295-1.024,2,2,0,0,1,.264-1.009,1.817,1.817,0,0,1,.73-.683,2.067,2.067,0,0,1,1.009-.249,2.249,2.249,0,0,1,1.055.249,4.09,4.09,0,0,1,.977.745l-.605.621a3.015,3.015,0,0,0-.714-.528,1.621,1.621,0,0,0-.76-.186,1.339,1.339,0,0,0-.559.124,1.121,1.121,0,0,0-.4.357.789.789,0,0,0-.155.5.937.937,0,0,0,.109.466,1.119,1.119,0,0,0,.295.372,2.746,2.746,0,0,0,.5.341c.59.326,1.04.59,1.335.791a2.539,2.539,0,0,1,.7.714,1.762,1.762,0,0,1,.248.977,2.121,2.121,0,0,1-.28,1.071,2.229,2.229,0,0,1-.776.791,2.034,2.034,0,0,1-1.15.327Z" transform="translate(-583.013 -106.109)" fill="#372e9f"/>
    </g>
    <g id="Groupe_3" data-name="Groupe 3" transform="translate(63.9 63.9)">
      <rect id="Rectangle_14151" data-name="Rectangle 14151" width="19.039" height="19" rx="4" fill="#372e9f"/>
      <path id="Tracé_264" data-name="Tracé 264" d="M20.8,22.844a1.1,1.1,0,1,0-2.069.748l2.8,7.728a1.1,1.1,0,0,0,2.063-.745Z" transform="translate(-14.837 -17.578)" fill="#fff"/>
      <path id="Tracé_265" data-name="Tracé 265" d="M46.84,22.153a1.1,1.1,0,0,0-1.1.727l-1.757,4.874-.771-2.138a1.1,1.1,0,1,0-2.07.748l1.808,4.989a1.08,1.08,0,0,0,.356.485l.031.024c.024.018.051.035.076.051s.041.023.061.035a.719.719,0,0,0,.074.037,1.294,1.294,0,0,0,.125.045.626.626,0,0,0,.061.014c.031.008.061.012.094.018a.594.594,0,0,1,.061.008c.01,0,.021,0,.033,0h.059a.576.576,0,0,0,.059,0l.033,0a.316.316,0,0,0,.061-.008.7.7,0,0,0,.094-.018c.021,0,.041-.008.061-.014a.8.8,0,0,0,.123-.045c.024-.01.049-.024.074-.037s.041-.023.061-.033a.719.719,0,0,0,.078-.051l.032-.024a1.091,1.091,0,0,0,.356-.485l2.8-7.728a1.1,1.1,0,0,0-.974-1.474Z" transform="translate(-32.662 -17.615)" fill="#fff"/>
    </g>
  </g>
</svg>
