<svg id="WeRH_logo" xmlns="http://www.w3.org/2000/svg" width="62.248" height="19" viewBox="0 0 62.248 19">
  <g id="Groupe_4" data-name="Groupe 4">
    <rect id="Rectangle_14151" data-name="Rectangle 14151" width="19.039" height="19" rx="4" fill="#372e9f"/>
    <path id="Tracé_264" data-name="Tracé 264" d="M20.8,22.844a1.1,1.1,0,1,0-2.069.748l2.8,7.728a1.1,1.1,0,0,0,2.063-.745Z" transform="translate(-14.837 -17.578)" fill="#fff"/>
    <path id="Tracé_265" data-name="Tracé 265" d="M46.84,22.153a1.1,1.1,0,0,0-1.1.727l-1.757,4.874-.771-2.138a1.1,1.1,0,1,0-2.07.748l1.808,4.989a1.08,1.08,0,0,0,.356.485l.031.024c.024.018.051.035.076.051s.041.023.061.035a.719.719,0,0,0,.074.037,1.294,1.294,0,0,0,.125.045.626.626,0,0,0,.061.014c.031.008.061.012.094.018a.594.594,0,0,1,.061.008c.01,0,.021,0,.033,0h.059a.576.576,0,0,0,.059,0l.033,0a.316.316,0,0,0,.061-.008.7.7,0,0,0,.094-.018c.021,0,.041-.008.061-.014a.8.8,0,0,0,.123-.045c.024-.01.049-.024.074-.037s.041-.023.061-.033a.719.719,0,0,0,.078-.051l.032-.024a1.091,1.091,0,0,0,.356-.485l2.8-7.728a1.1,1.1,0,0,0-.974-1.474Z" transform="translate(-32.662 -17.615)" fill="#fff"/>
  </g>
  <path id="Tracé_267" data-name="Tracé 267" d="M2.328,6.678H4.309a12,12,0,0,1,2.244.135,2.561,2.561,0,0,1,1.44.869,2.481,2.481,0,0,1,.554,1.641,2.653,2.653,0,0,1-.38,1.428,2.383,2.383,0,0,1-1.094.93A5.016,5.016,0,0,1,5.113,12l3.576,4.619H7.46L3.884,12.007H3.322v4.614H2.328Zm.993.973V11.03l1.713.014a4.259,4.259,0,0,0,1.473-.189,1.532,1.532,0,0,0,.746-.6,1.683,1.683,0,0,0,.268-.929,1.611,1.611,0,0,0-.271-.909,1.509,1.509,0,0,0-.711-.585,4.32,4.32,0,0,0-1.462-.176Zm7.341-.973h.993v4.17h5.063V6.678h.993v9.943h-.993v-4.8H11.656v4.8h-.993Z" transform="translate(44.536 -2.181)" fill="#372e9f"/>
  <g id="Groupe_13323" data-name="Groupe 13323" transform="translate(24.835 4.555)">
    <path id="Tracé_260" data-name="Tracé 260" d="M123.273,32.144l-2.013-9.9h2.263l.883,4.664c.037.23.076.461.117.69s.08.455.117.676.072.457.109.682.069.457.1.7l-.248-.014q.054-.289.109-.565c.037-.185.074-.369.109-.551.045-.266.094-.536.145-.807s.1-.536.158-.793l1.159-4.676h2.208l1.174,4.649c.054.266.113.555.172.862s.113.6.158.889l.236,1.09h-.276l.207-1.434c.045-.23.088-.463.125-.7s.074-.471.109-.711l.856-4.649h2.276l-2,9.9h-2.636l-1.194-4.717q-.123-.47-.221-1.014t-.166-1.069a1.709,1.709,0,0,1-.082-.332,3.4,3.4,0,0,0-.069-.344l.4-.014c-.027.193-.054.377-.082.551s-.059.35-.1.524c-.047.284-.094.573-.145.862s-.1.567-.145.835l-1.159,4.719h-2.648Z" transform="translate(-121.26 -22.24)" fill="#372e9f"/>
    <path id="Tracé_261" data-name="Tracé 261" d="M184.892,41.616a4.017,4.017,0,0,1-2.036-.5,3.583,3.583,0,0,1-1.366-1.386,4.062,4.062,0,0,1-.489-2,4.007,4.007,0,0,1,.463-1.89,3.573,3.573,0,0,1,1.331-1.411,3.835,3.835,0,0,1,2.042-.53,4.075,4.075,0,0,1,2.063.51,3.468,3.468,0,0,1,1.372,1.434,4.436,4.436,0,0,1,.483,2.083V38.2a1.732,1.732,0,0,1-.014.236h-5.562a1.615,1.615,0,0,0,.318.731,1.561,1.561,0,0,0,.6.448,2.033,2.033,0,0,0,.821.158,2.371,2.371,0,0,0,.911-.166,3.475,3.475,0,0,0,.842-.524l1.657,1.088a4.177,4.177,0,0,1-1.448,1.055,4.771,4.771,0,0,1-1.987.393Zm1.629-4.786a1.633,1.633,0,0,0-.318-.655,1.3,1.3,0,0,0-.572-.4,2.164,2.164,0,0,0-.766-.131,1.786,1.786,0,0,0-.706.137,1.474,1.474,0,0,0-.543.408,1.959,1.959,0,0,0-.352.641Z" transform="translate(-168.765 -31.505)" fill="#372e9f"/>
  </g>
</svg>
